<svg width="1200" height="760" viewBox="0 0 1200 760" fill="none" xmlns="http://www.w3.org/2000/svg">
  <rect width="1200" height="760" rx="36" fill="#060A0F"/>
  <circle cx="1030" cy="90" r="180" fill="#6EE7B7" opacity="0.10"/>
  <circle cx="120" cy="690" r="220" fill="#3B82F6" opacity="0.08"/>
  <text x="70" y="95" fill="#E5E7EB" font-family="Inter,Segoe UI,Arial" font-size="48" font-weight="800">Viaje Rentable AR</text>
  <text x="70" y="145" fill="#A7B0BE" font-family="Inter,Segoe UI,Arial" font-size="24">Asistente gratuito y open source para conductores de apps de viaje</text>
  <g transform="translate(70 210)">
    <rect width="310" height="170" rx="28" fill="#0F1722" stroke="#233041"/>
    <text x="28" y="52" fill="#6EE7B7" font-family="Inter,Segoe UI,Arial" font-size="24" font-weight="800">ACEPTAR</text>
    <text x="28" y="103" fill="#F8FAFC" font-family="Inter,Segoe UI,Arial" font-size="46" font-weight="800">$ 5.677</text>
    <text x="28" y="142" fill="#CBD5E1" font-family="Inter,Segoe UI,Arial" font-size="24">$718/km · $14.200/h</text>
  </g>
  <g transform="translate(70 415)">
    <rect width="310" height="170" rx="28" fill="#0F1722" stroke="#233041"/>
    <text x="28" y="52" fill="#FBBF24" font-family="Inter,Segoe UI,Arial" font-size="24" font-weight="800">REVISAR</text>
    <text x="28" y="103" fill="#F8FAFC" font-family="Inter,Segoe UI,Arial" font-size="46" font-weight="800">$ 7.124</text>
    <text x="28" y="142" fill="#CBD5E1" font-family="Inter,Segoe UI,Arial" font-size="24">$/km bajo · $/h alto</text>
  </g>
  <g transform="translate(450 180)">
    <rect width="250" height="520" rx="42" fill="#0B111A" stroke="#1F2937" stroke-width="5"/>
    <rect x="20" y="60" width="210" height="150" rx="22" fill="#063A2B" stroke="#168A68"/>
    <text x="42" y="104" fill="#DDFDF0" font-family="Inter,Segoe UI,Arial" font-size="18" font-weight="700">Estado</text>
    <text x="42" y="146" fill="#F8FAFC" font-family="Inter,Segoe UI,Arial" font-size="28" font-weight="800">Listo</text>
    <rect x="20" y="235" width="210" height="110" rx="20" fill="#111827" stroke="#243244"/>
    <text x="42" y="282" fill="#E5E7EB" font-family="Inter,Segoe UI,Arial" font-size="24" font-weight="700">Monitoreo</text>
    <rect x="42" y="305" width="166" height="36" rx="18" fill="#6EE7B7"/>
    <text x="72" y="329" fill="#04130E" font-family="Inter,Segoe UI,Arial" font-size="14" font-weight="800">Iniciar</text>
    <rect x="20" y="370" width="210" height="95" rx="20" fill="#111827" stroke="#243244"/>
    <text x="42" y="418" fill="#E5E7EB" font-family="Inter,Segoe UI,Arial" font-size="22" font-weight="700">Última decisión</text>
  </g>
  <g transform="translate(730 180)">
    <rect width="250" height="520" rx="42" fill="#0B111A" stroke="#1F2937" stroke-width="5"/>
    <text x="28" y="76" fill="#E5E7EB" font-family="Inter,Segoe UI,Arial" font-size="27" font-weight="800">Configuración</text>
    <rect x="20" y="115" width="210" height="145" rx="20" fill="#111827" stroke="#243244"/>
    <text x="40" y="158" fill="#F8FAFC" font-family="Inter,Segoe UI,Arial" font-size="19" font-weight="800">Rentabilidad</text>
    <text x="40" y="203" fill="#CBD5E1" font-family="Inter,Segoe UI,Arial" font-size="18">600 $/km</text>
    <text x="40" y="235" fill="#CBD5E1" font-family="Inter,Segoe UI,Arial" font-size="18">7000 $/h</text>
    <rect x="20" y="290" width="210" height="145" rx="20" fill="#111827" stroke="#243244"/>
    <text x="40" y="333" fill="#F8FAFC" font-family="Inter,Segoe UI,Arial" font-size="19" font-weight="800">Costos</text>
    <text x="40" y="378" fill="#CBD5E1" font-family="Inter,Segoe UI,Arial" font-size="18">280 $/km</text>
    <text x="40" y="410" fill="#CBD5E1" font-family="Inter,Segoe UI,Arial" font-size="18">30 $/min</text>
  </g>
  <g transform="translate(1010 255)">
    <rect width="135" height="185" rx="20" fill="#0F1722" stroke="#EF4444" stroke-width="3"/>
    <text x="18" y="45" fill="#F87171" font-family="Inter,Segoe UI,Arial" font-size="20" font-weight="800">RECHAZAR</text>
    <text x="18" y="92" fill="#F8FAFC" font-family="Inter,Segoe UI,Arial" font-size="30" font-weight="800">$6205</text>
    <text x="18" y="128" fill="#CBD5E1" font-family="Inter,Segoe UI,Arial" font-size="16">347/km</text>
    <text x="18" y="154" fill="#CBD5E1" font-family="Inter,Segoe UI,Arial" font-size="16">12410/h</text>
  </g>
  <text x="70" y="705" fill="#64748B" font-family="Inter,Segoe UI,Arial" font-size="19">OCR local · cálculo configurable · overlay visual · sin automatizar acciones</text>
</svg>
